#!OML:ASF G:\ViconDB\ViconDB\414\test\team2\shane.ASF
:FULLY-SPECIFIED
:DEGREES
314
root 1.25444 16.8427 17.6088 -4.54274 -4.65337 -3.04939
lowerback 8.81043 1.83121 0.0920049
upperback 5.00609 2.43183 0.210358
thorax 0.240401 1.21332 -0.0390254
lowerneck -13.9756 -3.06691 -10.3053
upperneck 37.4395 0.0793992 -3.51714
head 15.7355 -1.92187 0.309111
rclavicle -2.04748e-014 -5.56597e-015
rhumerus -16.874 -5.71439 -51.0952
rradius 124.817
rwrist 161.482
rhand -6.80791 19.0237
rfingers 7.12502
rthumb 19.0556 -10.0628
lclavicle -2.04748e-014 -5.56597e-015
lhumerus -46.4433 -20.1058 96.5988
lradius 40.9689
lwrist -14.4281
lhand -36.8183 5.20362
lfingers 7.12502
lthumb -9.89939 34.9509
rfemur 13.0245 -8.83911 11.5257
rtibia 52.3349
rfoot 7.86814 2.25675
rtoes -11.6983
lfemur -15.5485 14.3939 -12.7941
ltibia 33.5425
lfoot -16.8217 -12.8932
ltoes -4.66458
315
root 1.26967 16.8569 17.8109 -4.94661 -4.26666 -2.74345
lowerback 9.32147 1.73942 -0.0627796
upperback 4.85041 2.29595 -0.0206509
thorax -0.197354 1.14496 -0.19887
lowerneck -13.0272 -2.78055 -9.84898
upperneck 38.3455 0.467832 -3.95569
head 15.9532 -1.78403 0.0998636
rclavicle -1.46604e-014 -1.19271e-015
rhumerus -16.874 -5.71439 -51.0952
rradius 124.817
rwrist 161.482
rhand -6.80791 19.0237
rfingers 7.12502
rthumb 19.0556 -10.0628
lclavicle -2.04748e-014 -5.56597e-015
lhumerus -46.4433 -20.1058 96.5988
lradius 40.9689
lwrist -14.4281
lhand -36.8183 5.20362
lfingers 7.12502
lthumb -9.89939 34.9509
rfemur 11.6402 -9.4804 11.0325
rtibia 55.7452
rfoot 5.45262 1.86274
rtoes -12.6694
lfemur -14.4255 13.8222 -13.078
ltibia 33.6138
lfoot -17.4337 -12.6505
ltoes -4.7085
316
root 1.27968 16.855 18.0058 -5.30627 -3.77652 -2.60339
lowerback 9.54702 1.56094 -0.344275
upperback 4.87278 2.03546 -0.0547351
thorax -0.306635 1.01047 -0.058403
lowerneck -12.4008 -2.56174 -10.1784
upperneck 39.4424 0.803523 -3.73247
head 16.3692 -1.70479 0.292351
rclavicle -8.94531e-016 -8.34896e-015
rhumerus -16.874 -5.71439 -51.0952
rradius 124.817
rwrist 161.482
rhand -6.80791 19.0237
rfingers 7.12502
rthumb 19.0556 -10.0628
lclavicle -8.94531e-016 -8.34896e-015
lhumerus -46.8425 -20.582 96.7245
lradius 41.6412
lwrist -14.3391
lhand -38.0417 6.10402
lfingers 7.12502
lthumb -11.0795 35.7916
rfemur 10.2547 -10.1281 10.8406
rtibia 58.965
rfoot 3.31226 2.14769
rtoes -11.8455
lfemur -13.4542 13.2907 -13.1915
ltibia 33.7748
lfoot -17.7783 -12.4793
ltoes -4.81506
317
root 1.29443 16.8459 18.1991 -5.89105 -3.55806 -3.05462
lowerback 9.69132 1.37551 0.00423731
upperback 5.24163 1.81954 0.0806694
thorax 0.00386885 0.907092 -0.0911903
lowerneck -12.0082 -2.33586 -10.175
upperneck 40.3143 1.20925 -3.8648
head 16.7353 -1.59107 0.285171
rclavicle 3.85642e-014 -9.93923e-015
rhumerus -16.874 -5.71439 -51.0952
rradius 124.817
rwrist 161.482
rhand -6.80791 19.0237
rfingers 7.12502
rthumb 19.0556 -10.0628
lclavicle 3.85642e-014 -9.93923e-015
lhumerus -46.2855 -20.8338 96.6472
lradius 41.7909
lwrist -14.0188
lhand -38.3127 6.16698
lfingers 7.12502
lthumb -11.3408 35.8403
rfemur 9.09538 -10.7983 11.238
rtibia 61.8397
rfoot 1.31508 2.41023
rtoes -12.2796
lfemur -12.2533 12.934 -12.5709
ltibia 34.0909
lfoot -18.4699 -12.2705
ltoes -5.15244
318
root 1.30623 16.83 18.3929 -6.29856 -3.22265 -3.09966
lowerback 9.5979 1.21082 -0.123917
upperback 5.46286 1.59093 0.0331285
thorax 0.282183 0.790985 -0.0414095
lowerneck -11.4121 -2.16093 -10.1161
upperneck 41.3709 1.4252 -3.80106
head 17.1649 -1.52884 0.319393
rclavicle -7.25564e-015 1.15295e-014
rhumerus -16.874 -5.71439 -51.0952
rradius 124.817
rwrist 161.482
rhand -6.80791 19.0237
rfingers 7.12502
rthumb 19.0556 -10.0628
lclavicle -7.25564e-015 1.15295e-014
lhumerus -45.9199 -21.0998 96.4358
lradius 41.8278
lwrist -14.0546
lhand -38.6681 5.77725
lfingers 7.12502
lthumb -11.6836 35.4315
rfemur 7.73178 -11.5467 11.2134
rtibia 64.505
rfoot -0.246055 2.78403
rtoes -13.4778
lfemur -11.356 12.3251 -12.4678
ltibia 34.6196
lfoot -19.1839 -11.9208
ltoes -5.17197
